<svg width="24" height="25" viewBox="0 0 24 25" fill="none" xmlns="http://www.w3.org/2000/svg">
<g clip-path="url(#clip0_20_1763)">
<path d="M21.8 8.21976C21.7408 6.92944 21.2107 5.70557 20.31 4.77976C19.4238 3.85849 18.2335 3.28999 16.96 3.17976C15.9796 3.08517 14.9949 3.04178 14.01 3.04976C11.85 3.04976 9.67996 3.04976 7.50996 3.12976C6.71403 3.11786 5.92527 3.28176 5.19996 3.60976C4.47566 3.94672 3.83396 4.43824 3.31996 5.04976C2.52819 6.06316 2.08297 7.30415 2.04996 8.58976C1.99971 8.86385 1.96963 9.14126 1.95996 9.41976V16.7398C2.01996 17.3098 2.05996 17.8798 2.15996 18.4498C2.34115 19.6509 2.93097 20.7528 3.82996 21.5698C4.72954 22.3881 5.88534 22.8688 7.09996 22.9298C7.73996 22.9898 8.41996 23.0298 9.09996 23.0698H14.76C15.43 23.0698 16.11 22.9898 16.76 22.9298C18.0871 22.8684 19.3431 22.3118 20.28 21.3698C21.222 20.4329 21.7786 19.1769 21.84 17.8498C21.89 17.2098 21.93 16.5098 21.97 15.8498V10.1798C21.88 9.51976 21.85 8.86976 21.8 8.21976ZM17.02 13.0498H15.16V19.6598H12.63V13.0498H11.3V10.8598H12.57V9.36976C12.5685 9.1015 12.5919 8.83368 12.64 8.56976C12.7116 8.03765 12.9704 7.54844 13.37 7.18976C13.77 6.83176 14.2834 6.62637 14.82 6.60976C15.56 6.60976 16.3 6.60976 17.03 6.60976H17.18V8.70976H15.85C15.7673 8.69518 15.6827 8.69518 15.6 8.70976C15.5178 8.74083 15.4429 8.78849 15.38 8.84976C15.3128 8.90574 15.2611 8.97806 15.23 9.05976C15.2063 9.14142 15.2063 9.2281 15.23 9.30976V10.8598H17.29C17.18 11.5798 17.09 12.2898 17.02 13.0498Z" fill="black"/>
</g>
<defs>
<clipPath id="clip0_20_1763">
<rect width="24" height="24" fill="white" transform="translate(0 0.549805)"/>
</clipPath>
</defs>
</svg>
