<svg width="24" height="25" viewBox="0 0 24 25" fill="none" xmlns="http://www.w3.org/2000/svg">
<g clip-path="url(#clip0_20_1764)">
<path fill-rule="evenodd" clip-rule="evenodd" d="M16.0198 2.5498C16.805 2.54976 17.5823 2.70537 18.3069 3.00763C19.0315 3.30989 19.6891 3.7528 20.2414 4.31075C20.7938 4.8687 21.2301 5.53062 21.525 6.25823C21.82 6.98585 21.9678 7.76472 21.9599 8.5498V16.5498C21.9678 17.3349 21.82 18.1138 21.525 18.8414C21.2301 19.569 20.7938 20.2309 20.2414 20.7889C19.6891 21.3468 19.0315 21.7897 18.3069 22.092C17.5823 22.3942 16.805 22.5498 16.0198 22.5498H7.95985C7.17641 22.5472 6.40122 22.3897 5.67892 22.0862C4.95663 21.7828 4.30148 21.3395 3.75123 20.7818C3.20098 20.2241 2.76649 19.5631 2.47278 18.8368C2.17906 18.1104 2.03194 17.3332 2.03985 16.5498V8.5498C2.03194 7.7664 2.17906 6.98916 2.47278 6.26286C2.76649 5.53655 3.20098 4.87553 3.75123 4.31784C4.30148 3.76016 4.95663 3.31683 5.67892 3.01339C6.40122 2.70996 7.17641 2.5524 7.95985 2.5498H16.0099H16.0198ZM16.0198 4.5498H7.95985C7.43866 4.55105 6.92291 4.65595 6.44264 4.85841C5.96237 5.06086 5.52717 5.35683 5.16237 5.72907C4.79757 6.10132 4.51046 6.54241 4.31775 7.02667C4.12503 7.51093 4.03057 8.02869 4.03985 8.5498V16.5498C4.03057 17.0709 4.12503 17.5887 4.31775 18.0729C4.51046 18.5572 4.79757 18.9983 5.16237 19.3705C5.52717 19.7428 5.96237 20.0387 6.44264 20.2412C6.92291 20.4437 7.43866 20.5486 7.95985 20.5498H16.0099C16.5336 20.5526 17.0526 20.4506 17.5363 20.2499C18.0201 20.0492 18.4588 19.7539 18.8268 19.3813C19.1948 19.0086 19.4846 18.5662 19.6792 18.0799C19.8738 17.5937 19.9692 17.0734 19.9599 16.5498V8.5498C19.9692 8.02701 19.8741 7.50761 19.6801 7.02203C19.4862 6.53645 19.1972 6.09446 18.8303 5.72194C18.4634 5.34942 18.0258 5.05387 17.5432 4.8526C17.0606 4.65133 16.5427 4.54839 16.0198 4.5498ZM12.0198 7.2398C12.7136 7.24242 13.4 7.38199 14.0397 7.6505C14.6794 7.91902 15.2598 8.3112 15.7476 8.80455C16.2353 9.29789 16.6209 9.88269 16.8821 10.5254C17.1434 11.1681 17.2751 11.8561 17.2698 12.5498C17.2699 13.2452 17.1323 13.9338 16.8649 14.5758C16.5976 15.2178 16.2058 15.8006 15.7122 16.2905C15.2186 16.7804 14.6329 17.1677 13.9889 17.4302C13.3449 17.6927 12.6553 17.8251 11.9599 17.8198C10.5682 17.8093 9.23695 17.2497 8.25567 16.2628C7.2744 15.2759 6.72244 13.9415 6.71985 12.5498C6.72244 11.1581 7.2744 9.82369 8.25567 8.8368C9.23695 7.84991 10.5682 7.29035 11.9599 7.2798L12.0198 7.2398ZM12.0198 9.2398C11.5876 9.23695 11.1593 9.32114 10.7603 9.48736C10.3613 9.65359 9.99986 9.89843 9.69751 10.2073C9.39516 10.5162 9.1581 10.8828 9.00044 11.2852C8.84278 11.6877 8.76777 12.1177 8.77986 12.5498C8.77979 13.3969 9.11354 14.2099 9.70878 14.8127C10.304 15.4154 11.1128 15.7593 11.9599 15.7698C12.3861 15.7751 12.8091 15.6957 13.2044 15.5363C13.5997 15.3768 13.9594 15.1405 14.2626 14.8409C14.5659 14.5414 14.8067 14.1847 14.971 13.7914C15.1353 13.3981 15.2199 12.976 15.2198 12.5498C15.2199 12.1236 15.1353 11.7016 14.971 11.3083C14.8067 10.915 14.5659 10.5582 14.2626 10.2587C13.9594 9.95913 13.5997 9.72278 13.2044 9.56334C12.8091 9.40389 12.3861 9.32451 11.9599 9.3298L12.0198 9.2398ZM17.2899 6.0098C17.4443 6.0098 17.5973 6.04039 17.7399 6.09981C17.8825 6.15923 18.0119 6.24631 18.1207 6.35602C18.2295 6.46572 18.3155 6.59589 18.3737 6.73899C18.4319 6.8821 18.4612 7.03532 18.4599 7.1898C18.4599 7.50011 18.3366 7.7977 18.1172 8.01712C17.8978 8.23654 17.6002 8.3598 17.2899 8.3598C16.9804 8.35719 16.6843 8.23309 16.4654 8.01423C16.2466 7.79538 16.1225 7.4993 16.1199 7.1898C16.1421 6.89781 16.2722 6.62453 16.4847 6.42308C16.6972 6.22163 16.9771 6.1064 17.2698 6.0998L17.2899 6.0098Z" fill="black"/>
</g>
<defs>
<clipPath id="clip0_20_1764">
<rect width="24" height="24" fill="white" transform="translate(0 0.549805)"/>
</clipPath>
</defs>
</svg>
