<svg width="24" height="25" viewBox="0 0 24 25" fill="none" xmlns="http://www.w3.org/2000/svg">
<g clip-path="url(#clip0_20_1766)">
<path fill-rule="evenodd" clip-rule="evenodd" d="M15.7802 2.5498C15.7452 3.83649 16.221 5.08472 17.1036 6.02165C17.9861 6.95858 19.2038 7.50799 20.4902 7.5498V10.9498C18.7835 10.9035 17.135 10.319 15.7802 9.2798V15.8998C15.7802 18.8998 14.1502 21.8398 11.0302 22.4298C10.0347 22.6195 9.0092 22.5819 8.03024 22.3198C0.41024 20.0398 2.96024 8.7398 10.6002 9.9498V13.5998C7.43024 13.1298 6.38024 15.7598 7.22024 17.6498C7.48597 18.0956 7.86998 18.4591 8.32967 18.7C8.78937 18.9409 9.30681 19.0498 9.8246 19.0146C10.3424 18.9794 10.8403 18.8014 11.2632 18.5005C11.686 18.1996 12.0173 17.7875 12.2202 17.3098C12.3471 16.7794 12.4076 16.2352 12.4002 15.6898V2.5498H15.7802Z" fill="black"/>
</g>
<defs>
<clipPath id="clip0_20_1766">
<rect width="24" height="24" fill="white" transform="translate(0 0.549805)"/>
</clipPath>
</defs>
</svg>
