<svg width="20" height="18" viewBox="0 0 20 18" fill="none" xmlns="http://www.w3.org/2000/svg">
<path fill-rule="evenodd" clip-rule="evenodd" d="M19.5302 2.4898C19.1048 2.68478 18.6631 2.84205 18.2102 2.9598C18.7158 2.45232 19.087 1.8268 19.2902 1.1398C19.307 1.09598 19.3093 1.04794 19.2968 1.0027C19.2843 0.957462 19.2577 0.917396 19.2209 0.888355C19.184 0.859314 19.1388 0.842819 19.0919 0.841281C19.045 0.839743 18.9989 0.853241 18.9602 0.879805C18.3418 1.27024 17.6674 1.56364 16.9602 1.7498C16.9175 1.76039 16.8729 1.76039 16.8302 1.7498C16.7005 1.7467 16.5762 1.697 16.4802 1.6098C15.742 0.928769 14.7745 0.550374 13.7702 0.549805C13.3285 0.55118 12.8898 0.622047 12.4702 0.759805C11.8038 0.988268 11.2074 1.38417 10.7381 1.90951C10.2687 2.43485 9.94235 3.072 9.79018 3.7598C9.67208 4.28105 9.63832 4.81787 9.69018 5.3498C9.70476 5.38847 9.70476 5.43113 9.69018 5.4698C9.67529 5.48742 9.65697 5.50183 9.63634 5.51214C9.61571 5.52246 9.5932 5.52847 9.57017 5.5298C8.11503 5.38034 6.70621 4.93299 5.43141 4.21559C4.15661 3.49819 3.04309 2.52609 2.16017 1.3598C2.14101 1.33093 2.11501 1.30724 2.08448 1.29085C2.05394 1.27446 2.01983 1.26589 1.98518 1.26589C1.95052 1.26589 1.91641 1.27446 1.88587 1.29085C1.85534 1.30724 1.82933 1.33093 1.81017 1.3598C1.42373 2.02546 1.21697 2.78014 1.21017 3.5498C1.20436 4.70026 1.64533 5.80806 2.44018 6.6398C2.11006 6.55943 1.7934 6.43142 1.50017 6.2598C1.46754 6.23966 1.43002 6.22884 1.39168 6.22851C1.35333 6.22818 1.31563 6.23836 1.28265 6.25793C1.24968 6.27751 1.2227 6.30574 1.20463 6.33957C1.18657 6.37339 1.17811 6.41151 1.18018 6.4498C1.16033 7.27539 1.37537 8.08963 1.80025 8.79776C2.22513 9.5059 2.84238 10.0788 3.58018 10.4498H3.49017C3.25858 10.4465 3.02771 10.4231 2.80017 10.3798C2.76258 10.3751 2.72441 10.3798 2.68906 10.3934C2.6537 10.407 2.62226 10.4292 2.59752 10.4579C2.57278 10.4866 2.55552 10.5209 2.54726 10.5579C2.539 10.5949 2.54 10.6333 2.55017 10.6698C2.76795 11.4147 3.18788 12.0847 3.76334 12.6054C4.33879 13.1262 5.04728 13.4773 5.81017 13.6198C4.56899 14.5021 3.08297 14.9741 1.56017 14.9698H1.09017C1.01737 14.9684 0.946399 14.9927 0.889716 15.0384C0.833033 15.0842 0.794254 15.1484 0.780173 15.2198C0.762237 15.2909 0.767062 15.3658 0.793975 15.434C0.820888 15.5021 0.868531 15.5601 0.930175 15.5998C2.63625 16.6475 4.59811 17.2045 6.60017 17.2098C8.27468 17.2229 9.93008 16.8535 11.4402 16.1298C12.7959 15.461 13.9954 14.5137 14.9602 13.3498C15.9118 12.2227 16.6566 10.9363 17.1602 9.5498C17.6396 8.20786 17.8898 6.79479 17.9002 5.3698V5.2798C17.8985 5.17145 17.9209 5.06409 17.9659 4.9655C18.0109 4.8669 18.0772 4.77956 18.1602 4.7098C18.7964 4.16633 19.3461 3.52901 19.7902 2.8198C19.8167 2.78112 19.8302 2.73496 19.8287 2.68806C19.8272 2.64116 19.8107 2.59598 19.7816 2.55912C19.7526 2.52226 19.7125 2.49565 19.6673 2.48318C19.622 2.47071 19.574 2.47303 19.5302 2.4898Z" fill="black"/>
</svg>
