<svg width="24" height="25" viewBox="0 0 24 25" fill="none" xmlns="http://www.w3.org/2000/svg">
<g clip-path="url(#clip0_20_1768)">
<path d="M22.3999 7.28988C22.285 6.82374 22.0442 6.39813 21.7038 6.05953C21.3635 5.72093 20.9366 5.48237 20.4699 5.36988C18.7899 4.87988 11.8799 4.87988 11.8799 4.87988C11.8799 4.87988 5.05987 4.87988 3.36987 5.36988C2.90313 5.48237 2.47628 5.72093 2.13592 6.05953C1.79556 6.39813 1.55478 6.82374 1.43987 7.28988C1.10628 9.02302 0.945494 10.785 0.959869 12.5499C0.950018 14.3278 1.11075 16.1026 1.43987 17.8499C1.55478 18.316 1.79556 18.7416 2.13592 19.0802C2.47628 19.4188 2.90313 19.6574 3.36987 19.7699C5.05987 20.2599 11.9599 20.2599 11.9599 20.2599C11.9599 20.2599 18.7899 20.2599 20.5499 19.7699C21.0176 19.6595 21.4455 19.4216 21.7862 19.0827C22.1269 18.7437 22.367 18.317 22.4799 17.8499C22.8118 16.103 22.9726 14.328 22.9599 12.5499C22.9333 10.7832 22.7458 9.02258 22.3999 7.28988ZM9.70987 15.7999V9.29988L15.4099 12.5099L9.70987 15.7999Z" fill="black"/>
</g>
<defs>
<clipPath id="clip0_20_1768">
<rect width="24" height="24" fill="white" transform="translate(0 0.549805)"/>
</clipPath>
</defs>
</svg>
